<?xml version="1.0" encoding="UTF-8"?>
<!DOCTYPE svg PUBLIC "-//W3C//DTD SVG 1.1//EN" "http://www.w3.org/Graphics/SVG/1.1/DTD/svg11.dtd">
<!-- Creator: CorelDRAW X6 -->
<svg xmlns="http://www.w3.org/2000/svg" xml:space="preserve" width="297mm" height="210mm" version="1.1" style="shape-rendering:geometricPrecision; text-rendering:geometricPrecision; image-rendering:optimizeQuality; fill-rule:evenodd; clip-rule:evenodd"
viewBox="0 0 29700 21000"
 xmlns:xlink="http://www.w3.org/1999/xlink">
 <defs>
  <style type="text/css">
   <![CDATA[
    .fil12 {fill:#2B2A29}
    .fil1 {fill:#2B2A29;fill-rule:nonzero}
    .fil7 {fill:#AC2422;fill-rule:nonzero}
    .fil9 {fill:#E7373E;fill-rule:nonzero}
    .fil5 {fill:url(#id0);fill-rule:nonzero}
    .fil8 {fill:url(#id1);fill-rule:nonzero}
    .fil4 {fill:url(#id2);fill-rule:nonzero}
    .fil2 {fill:url(#id3);fill-rule:nonzero}
    .fil3 {fill:url(#id4);fill-rule:nonzero}
    .fil0 {fill:url(#id5);fill-rule:nonzero}
    .fil6 {fill:url(#id6);fill-rule:nonzero}
    .fil10 {fill:url(#id7);fill-rule:nonzero}
    .fil11 {fill:url(#id8);fill-rule:nonzero}
   ]]>
  </style>
  <linearGradient id="id0" gradientUnits="userSpaceOnUse" x1="13802.1" y1="10871.3" x2="19354.5" y2="11850.3">
   <stop offset="0" style="stop-color:#AA99B0"/>
   <stop offset="0.0117647" style="stop-color:#A193A7"/>
   <stop offset="0.180392" style="stop-color:#A596AC"/>
   <stop offset="1" style="stop-color:#5F5463"/>
  </linearGradient>
  <linearGradient id="id1" gradientUnits="userSpaceOnUse" x1="21050.4" y1="11689.1" x2="21050.4" y2="8633.52">
   <stop offset="0" style="stop-color:#A10007"/>
   <stop offset="0.509804" style="stop-color:#DA0009"/>
   <stop offset="1" style="stop-color:#DA0009"/>
  </linearGradient>
  <linearGradient id="id2" gradientUnits="userSpaceOnUse" x1="11585.5" y1="11551.6" x2="11687.7" y2="10382.9">
   <stop offset="0" style="stop-color:#998A9F"/>
   <stop offset="0.529412" style="stop-color:#B29FB8"/>
   <stop offset="1" style="stop-color:#908092"/>
  </linearGradient>
  <linearGradient id="id3" gradientUnits="userSpaceOnUse" x1="17154" y1="9718.99" x2="22170.8" y2="10603.6">
   <stop offset="0" style="stop-color:#8B7A91"/>
   <stop offset="0.188235" style="stop-color:#8D7C94"/>
   <stop offset="1" style="stop-color:#5F5463"/>
  </linearGradient>
  <radialGradient id="id4" gradientUnits="userSpaceOnUse" cx="11687.4" cy="10352.6" r="1351.34" fx="11687.4" fy="10352.6">
   <stop offset="0" style="stop-color:#C0ACC7"/>
   <stop offset="1" style="stop-color:#908196"/>
  </radialGradient>
  <radialGradient id="id5" gradientUnits="userSpaceOnUse" cx="14380.1" cy="12838.3" r="9152.62" fx="14380.1" fy="12838.3">
   <stop offset="0" style="stop-color:#5B5A50"/>
   <stop offset="1" style="stop-color:#2B2A29"/>
  </radialGradient>
  <radialGradient id="id6" gradientUnits="userSpaceOnUse" cx="11053" cy="9794.62" r="1426.8" fx="11053" fy="9794.62">
   <stop offset="0" style="stop-color:#C2AEC9"/>
   <stop offset="1" style="stop-color:#908397"/>
  </radialGradient>
  <radialGradient id="id7" gradientUnits="userSpaceOnUse" xlink:href="#id6" cx="8073.86" cy="9216.93" r="2190.75" fx="8073.86" fy="9216.93">
  </radialGradient>
  <radialGradient id="id8" gradientUnits="userSpaceOnUse" cx="8023.1" cy="9260.45" r="2021.42" fx="8023.1" fy="9260.45">
   <stop offset="0" style="stop-color:#D8D1DB"/>
   <stop offset="1" style="stop-color:#CCBFD2"/>
  </radialGradient>
 </defs>
 <g id="Слой_x0020_1">
  <metadata id="CorelCorpID_0Corel-Layer"/>
  <path class="fil0" d="M4734 13234l287 -790 -155 0 -287 790 155 0zm735 -43l272 -747 -156 0 -180 492 -119 -492 0 0 0 0 0 0 -155 0 -287 790 155 0 179 -492 0 0 120 492 0 0 0 0 0 0 156 0 15 -43 0 0zm957 -747l-609 0 -57 156 304 0 -106 77 -202 557 155 0 230 -635 227 0 57 -156zm199 317l-107 78 66 -182c12,-33 48,-59 80,-59l290 0 104 -156 -340 0c-116,0 -246,95 -288,211l-135 369c-42,116 19,211 135,211l340 0 56 -155 -337 0c-32,0 -49,-27 -37,-59l37 -104 396 0 57 -156 -317 0zm1063 25l-1 4 0 0c0,-1 0,-2 1,-4zm49 -135l-1 4c0,-1 0,-2 1,-4l0 0zm-186 583l-56 -256c85,-33 161,-105 193,-189 0,-1 0,-2 1,-4l48 -131c0,-1 0,-2 1,-4 40,-115 -20,-207 -135,-207l-433 0 -287 790 155 0 230 -635 275 0c33,0 49,26 37,59l-44 124c-12,33 -47,59 -80,59l-167 0 -104 156 137 0 52 238 179 0zm718 -43l272 -747 -156 0 -180 492 -119 -492 0 0 0 0 0 0 -155 0 -287 790 155 0 179 -492 0 0 120 492 0 0 0 0 0 0 156 0 15 -43 0 0zm951 -536c42,-116 -18,-211 -134,-211l-222 0c-116,0 -246,95 -288,211l-210 580 155 0 209 -576c12,-33 48,-59 80,-59l217 0c33,0 49,26 37,59l-66 183 -228 0 -104 156 275 0 -85 238 156 0 210 -580zm762 -211l-609 0 -57 156 304 0 -106 77 -202 557 155 0 230 -635 227 0 57 -156zm-51 790l287 -790 -155 0 -287 790 155 0zm808 -790l-199 0c-116,0 -246,95 -288,211l-135 369c-42,116 19,211 135,211l199 0c116,0 245,-95 287,-211l135 -369c42,-116 -18,-211 -134,-211zm-155 577c-12,32 -47,59 -80,59l-193 0c-32,0 -49,-27 -37,-59l131 -363c12,-33 48,-59 80,-59l193 0c33,0 49,26 37,59l-131 363zm814 170l272 -747 -156 0 -180 492 -119 -492 0 0 0 0 0 0 -155 0 -287 790 155 0 179 -492 0 0 120 492 0 0 0 0 0 0 156 0 15 -43 0 0zm951 -536c42,-116 -18,-211 -134,-211l-223 0c-116,0 -246,95 -288,211l-210 580 155 0 209 -576c12,-33 48,-59 80,-59l217 0c33,0 49,26 37,59l-66 183 -228 0 -104 156 275 0 -85 238 156 0 210 -580zm400 580l9 -155 -239 0c-32,0 -49,-27 -37,-59l210 -577 -155 0 -212 580c-42,116 19,211 135,211l288 0zm679 -155c-32,0 -49,-27 -37,-59l131 -363c12,-33 48,-59 80,-59l280 0 104 -156 -329 0c-116,0 -246,95 -288,211l-135 369c-42,116 19,211 135,211l329 0 56 -155 -327 0zm1309 -636l-186 0 -266 255 -78 -255 -186 0 96 317 104 0 -56 54 -152 419 156 0 134 -371 433 -419zm485 357c32,-35 60,-77 76,-121l10 -26c42,-116 -18,-211 -134,-211l-378 0 -287 790 433 0c116,0 245,-95 287,-211l19 -52c26,-70 13,-133 -25,-171zm-148 220c-12,32 -47,59 -80,59l-275 0 174 -480 220 0c33,0 49,26 37,59l-15 45c-12,33 -47,59 -80,59l-158 0 -10 156 166 0c33,0 49,26 37,59l-16 46zm571 -260l-107 78 66 -182c12,-33 48,-59 80,-59l290 0 104 -156 -340 0c-116,0 -246,95 -288,211l-135 369c-42,116 19,211 135,211l340 0 56 -155 -337 0c-32,0 -49,-27 -37,-59l37 -104 396 0 57 -156 -317 0zm1063 25l-1 4 0 0c0,-1 0,-2 1,-4zm49 -135l-1 4c0,-1 0,-2 1,-4l0 0zm-186 583l-56 -256c85,-33 161,-105 193,-189 0,-1 0,-2 1,-4l48 -131c0,-1 0,-2 1,-4 40,-115 -20,-207 -135,-207l-433 0 -287 790 155 0 230 -635 275 0c33,0 49,26 37,59l-44 124c-12,33 -47,59 -80,59l-167 0 -104 156 137 0 52 238 179 0zm1299 -580c42,-116 -18,-211 -134,-211l-223 0c-116,0 -246,95 -288,211l-210 580 155 0 209 -576c12,-33 48,-59 80,-59l217 0c33,0 49,26 37,59l-66 183 -228 0 -104 156 275 0 -85 238 156 0 210 -580zm774 -211l-156 0 -210 577c-12,32 -47,59 -80,59l-158 0c-32,0 -49,-27 -37,-59l210 -577 -155 0 -212 580c-42,116 19,211 135,211l164 0c116,0 245,-95 287,-211l212 -580zm685 0l-609 0 -57 156 304 0 -106 77 -202 557 155 0 230 -635 227 0 57 -156zm492 0l-199 0c-116,0 -246,95 -288,211l-135 369c-42,116 19,211 135,211l199 0c116,0 245,-95 287,-211l135 -369c42,-116 -18,-211 -134,-211zm-155 577c-12,32 -47,59 -80,59l-193 0c-32,0 -49,-27 -37,-59l131 -363c12,-33 48,-59 80,-59l193 0c33,0 49,26 37,59l-131 363zm1347 -235l-1 4 0 0c0,-1 0,-2 1,-4zm49 -135l-1 4c0,-1 0,-2 1,-4l0 0zm-186 583l-56 -256c85,-33 161,-105 193,-189 0,-1 0,-2 1,-4l48 -131c0,-1 0,-2 1,-4 40,-115 -20,-207 -135,-207l-433 0 -287 790 155 0 230 -635 275 0c33,0 49,26 37,59l-44 124c-12,33 -47,59 -80,59l-167 0 -104 156 137 0 52 238 179 0zm948 -580c42,-116 -18,-211 -134,-211l-223 0c-116,0 -246,95 -288,211l-210 580 155 0 209 -576c12,-33 48,-59 80,-59l217 0c33,0 49,26 37,59l-66 183 -228 0 -104 156 275 0 -85 238 156 0 210 -580zm170 425c-32,0 -49,-27 -37,-59l131 -363c12,-33 48,-59 80,-59l280 0 104 -156 -329 0c-116,0 -246,95 -288,211l-135 369c-42,116 19,211 135,211l329 0 56 -155 -327 0zm519 155l287 -790 -155 0 -287 790 155 0zm735 -43l272 -747 -156 0 -180 492 -119 -492 0 0 0 0 0 0 -155 0 -287 790 155 0 179 -492 0 0 120 492 0 0 0 0 0 0 156 0 15 -43 0 0zm912 -430l-357 0 -10 156 155 0 -37 104c-12,32 -47,59 -80,59l-217 0c-32,0 -49,-27 -37,-59l131 -363c12,-33 48,-59 80,-59l290 0 104 -156 -340 0c-116,0 -246,95 -288,211l-135 369c-42,116 19,211 135,211l223 0c116,0 245,-95 287,-211l96 -262z"/>
  <path class="fil1" d="M14672 11033l4657 0 -240 657 -4950 0c-185,0 -309,-53 -364,-162 -55,-109 -50,-251 14,-425l668 -1823c70,-192 208,-349 410,-471 190,-115 403,-174 640,-174l9991 0 -253 691 -9947 0 -625 1708zm-2961 -2399l-1119 3056 -858 0 1119 -3056 858 0zm-733 3056l730 -1995 1805 0c137,0 228,58 273,144 45,86 44,194 -4,325l-559 1526 -675 0 529 -1444 -889 0 -529 1444 -682 0z"/>
  <path class="fil2" d="M14726 11033l4657 0 -240 657 -4950 0c-185,0 -309,-53 -364,-162 -55,-109 -50,-251 14,-425l668 -1823c70,-192 208,-349 410,-471 190,-115 403,-174 640,-174l9991 0 -253 691 -9947 0 -625 1708z"/>
  <path class="fil1" d="M18176 10335l-255 697 -860 0 642 -1754c70,-192 207,-349 410,-471 190,-116 403,-174 640,-174l1906 0c172,0 286,59 342,176 64,105 64,244 1,415l-903 2465 -862 0 496 -1354 -1557 0zm6601 -1057c-78,212 -172,378 -283,499 -107,117 -207,192 -299,224 39,9 83,55 132,140 46,93 43,225 -10,395l-422 1153 -858 0 365 -997c48,-134 56,-225 24,-272 -25,-52 -85,-80 -179,-84l-1267 0 -496 1354 -858 0 1119 -3056 2713 0c173,0 288,55 348,167 54,120 51,262 -8,423l-20 55zm-2557 400l1393 0c46,0 90,-15 132,-44 40,-27 69,-69 89,-123l69 -187 -1553 0 -130 354zm-2119 -346l-1557 0 -129 353 1557 0 129 -353z"/>
  <path class="fil3" d="M11031 11689l730 -1995 1805 0c137,0 228,58 272,144 45,86 44,194 -4,325l-559 1526 -675 0 529 -1444 -889 0 -529 1444 -682 0z"/>
  <polygon class="fil4" points="11031,11689 11560,10245 12242,10245 11713,11689 "/>
  <path class="fil5" d="M19383 11033l-240 657 -4950 0c-185,0 -309,-53 -364,-162 -55,-109 -50,-251 14,-425l25 -69 5515 0z"/>
  <polygon class="fil6" points="11765,8634 10646,11689 9788,11689 10907,8634 "/>
  <path class="fil7" d="M18219 10335l-255 697 -860 0 642 -1754c70,-192 207,-349 410,-471 190,-116 403,-174 640,-174l1906 0c172,0 286,59 342,176 64,105 64,244 1,415l-903 2465 -862 0 496 -1354 -1557 0zm6601 -1057c-78,212 -172,378 -283,499 -107,117 -207,192 -299,224 39,9 83,55 132,140 46,93 43,225 -10,395l-422 1153 -858 0 365 -997c48,-134 56,-225 24,-272 -25,-52 -85,-80 -179,-84l-1267 0 -496 1354 -858 0 1119 -3056 2713 0c173,0 288,55 348,167 54,120 51,262 -8,423l-20 55zm-2557 400l1393 0c46,0 90,-15 132,-44 40,-27 69,-69 89,-123l69 -187 -1553 0 -130 354zm-2119 -346l-1557 0 -129 353 1557 0 129 -353z"/>
  <path class="fil8" d="M18270 10335l-255 697 -860 0 642 -1754c70,-192 207,-349 410,-471 190,-116 403,-174 640,-174l1906 0c172,0 286,59 342,176 64,105 64,244 1,415l-903 2465 -862 0 496 -1354 -1557 0zm6595 -1057c-78,212 -172,378 -283,499 -107,117 -207,192 -299,224 39,9 83,55 132,140 46,93 43,225 -10,395l-422 1153 -858 0 365 -997c48,-134 56,-225 24,-272 -25,-52 -85,-80 -179,-84l-1267 0 -496 1354 -858 0 1119 -3056 2713 0c173,0 288,55 348,167 54,120 51,262 -8,423l-20 55zm-2557 400l1393 0c46,0 90,-15 132,-44 40,-27 69,-69 89,-123l69 -187 -1553 0 -130 354zm-2114 -346l-1557 0 -129 353 1557 0 129 -353z"/>
  <path class="fil9" d="M17534 9995l262 -716c70,-192 207,-349 410,-471 190,-116 403,-174 640,-174l1906 0c172,0 286,59 342,176 64,105 64,244 1,415l-282 771 -3280 0zm6766 0l-2966 0 498 -1361 2713 0c173,0 288,55 348,167 54,120 51,262 -8,423l-20 55c-78,212 -172,378 -283,499 -100,110 -194,182 -281,217zm-1993 -316l1393 0c46,0 90,-15 132,-44 40,-27 69,-69 89,-123l69 -187 -1553 0 -130 354zm-2114 -346l-1557 0 -129 353 1557 0 129 -353z"/>
  <g id="Icon">
   <path class="fil10" d="M7417 12126c1296,0 2346,-1050 2346,-2346 0,-1296 -1050,-2346 -2346,-2346 -1296,0 -2346,1050 -2346,2346 0,1296 1050,2346 2346,2346z"/>
   <path class="fil11" d="M7417 11944c1195,0 2164,-969 2164,-2165 0,-1195 -969,-2165 -2164,-2165 -1195,0 -2164,969 -2164,2165 0,1195 969,2165 2164,2165z"/>
   <path class="fil12" d="M7101 10269c-174,122 -335,147 -477,12 -72,19 -95,90 -118,176 -88,345 -209,571 -355,607 -208,50 -468,-16 -521,-323 -21,-124 9,-273 23,-403 38,-347 98,-675 189,-981 52,-168 135,-243 202,-364 24,-42 51,-74 101,-96 110,-48 277,-47 388,-1l-1 27c0,14 39,55 133,53l154 0 0 544c0,45 37,83 83,83l1027 0c45,0 83,-37 83,-83l0 -544 148 0c94,2 132,-38 133,-53l-1 -27c111,-47 278,-47 388,1 50,22 77,54 101,96 67,121 150,196 202,364 91,306 151,634 189,981 14,130 45,280 23,403 -53,307 -313,373 -521,323 -146,-35 -267,-261 -355,-607 -22,-86 -46,-157 -118,-176 -142,135 -304,110 -477,-12 -208,0 -416,0 -624,0zm1472 -1429c-63,-583 -557,-1037 -1157,-1037 -600,0 -1093,453 -1157,1036 98,-13 205,-2 286,32l17 7 -2 41c5,6 18,14 24,16 25,11 55,14 82,14l149 0 0 -1 406 0c9,-100 93,-178 195,-178 102,0 186,78 195,178l407 0 0 1 143 0c27,1 57,-3 82,-14 6,-3 19,-10 24,-16l-2 -41 17 -7c82,-35 193,-45 292,-31zm-2042 -286c-55,165 -20,227 60,231 84,4 85,-33 365,-91l-1 13c126,-43 272,-70 459,-69l1 0c186,-2 333,26 459,69l-1 -13c280,58 282,95 365,91 83,-4 118,-71 53,-251 -160,-322 -492,-543 -875,-543 -392,0 -729,230 -885,563zm888 186c11,0 20,-9 20,-20 0,-11 -9,-20 -20,-20 -11,0 -20,9 -20,20 0,11 9,20 20,20zm212 125c11,0 20,-9 20,-20 0,-11 -9,-20 -20,-20 -11,0 -20,9 -20,20 0,11 9,20 20,20zm-421 0c11,0 20,-9 20,-20 0,-11 -9,-20 -20,-20 -11,0 -20,9 -20,20 0,11 9,20 20,20zm1318 1041c230,0 416,-186 416,-416 0,-230 -186,-416 -416,-416 -230,0 -416,186 -416,416 0,230 186,416 416,416zm351 -418c0,-48 -39,-87 -87,-87 -48,0 -87,39 -87,87 0,48 39,87 87,87 48,0 87,-39 87,-87zm-288 206l-15 -15 -52 52 -52 -52 -15 15 52 52 -52 52 15 15 52 -52 52 52 15 -15 -52 -52 52 -52zm-255 -134l0 -145 -142 0 0 145 142 0zm-18 -127l0 108 -106 0 0 -108 106 0zm206 -268l55 94 -110 0 55 -93zm-88 112l177 0 -89 -151 -88 150zm356 139c39,0 70,31 70,70 0,39 -31,70 -70,70 -39,0 -70,-31 -70,-70 0,-39 31,-70 70,-70zm-267 211c66,0 119,53 119,119 0,66 -53,119 -119,119 -66,0 -119,-53 -119,-119 0,-66 53,-119 119,-119zm267 -21c-66,0 -119,-53 -119,-119 0,-66 53,-119 119,-119 66,0 119,53 119,119 0,66 -53,119 -119,119zm-148 -379c0,66 -53,119 -119,119 -66,0 -119,-53 -119,-119 0,-66 53,-119 119,-119 66,0 119,53 119,119zm-260 260c0,66 -53,119 -119,119 -66,0 -119,-53 -119,-119 0,-66 53,-119 119,-119 66,0 119,53 119,119zm-1992 -233l0 96 -97 97 -95 -95 0 -98c0,-29 24,-53 53,-53l85 0c29,0 53,24 53,53zm-329 138l96 0 96 96 -96 96 -96 0c-29,0 -53,-24 -53,-53l0 -85c0,-29 24,-53 53,-53zm273 96l96 -96 98 0c29,0 53,24 53,53l0 85c0,29 -24,53 -53,53l-98 0 -96 -96zm-41 41l97 97 0 96c0,29 -24,53 -53,53l-85 0c-29,0 -53,-24 -53,-53l0 -98 95 -95zm-1 377c230,0 416,-186 416,-416 0,-230 -186,-416 -416,-416 -230,0 -416,186 -416,416 0,230 186,416 416,416zm1689 289c128,0 231,-103 231,-231 0,-128 -103,-231 -231,-231 -128,0 -231,103 -231,231 0,128 103,231 231,231zm-1133 0c128,0 231,-103 231,-231 0,-128 -103,-231 -231,-231 -128,0 -231,103 -231,231 0,128 103,231 231,231zm0 -101c72,0 130,-58 130,-130 0,-72 -58,-130 -130,-130 -72,0 -130,58 -130,130 0,72 58,130 130,130zm0 80c116,0 210,-94 210,-210 0,-116 -94,-210 -210,-210 -116,0 -210,94 -210,210 0,116 94,210 210,210zm1133 -80c72,0 130,-58 130,-130 0,-72 -58,-130 -130,-130 -72,0 -130,58 -130,130 0,72 58,130 130,130zm0 80c116,0 210,-94 210,-210 0,-116 -94,-210 -210,-210 -116,0 -210,94 -210,210 0,116 94,210 210,210zm-5 129c183,0 331,-148 331,-331 0,-48 -10,-93 -28,-134 -54,-39 -99,-90 -131,-149 -50,-30 -109,-48 -172,-48 -183,0 -331,148 -331,331 0,183 148,331 331,331zm-1133 0c183,0 331,-148 331,-331 0,-183 -148,-331 -331,-331 -64,0 -124,18 -175,50 -31,57 -74,107 -127,145 -19,41 -29,88 -29,136 0,183 148,331 331,331zm1284 -1260l27 0c26,0 48,22 48,48l0 92c0,26 -22,48 -48,48l-27 0c-26,0 -48,-22 -48,-48l0 -92c0,-26 22,-48 48,-48zm-1466 0l27 0c26,0 48,22 48,48l0 92c0,26 -22,48 -48,48l-27 0c-26,0 -48,-22 -48,-48l0 -92c0,-26 22,-48 48,-48zm626 711c10,0 18,-8 18,-18 0,-10 -8,-18 -18,-18 -10,0 -18,8 -18,18 0,10 8,18 18,18zm127 332c52,0 94,-42 94,-94 0,-52 -42,-94 -94,-94 -52,0 -94,42 -94,94 0,52 42,94 94,94zm63 -236c10,0 18,-8 18,-18 0,-10 -8,-18 -18,-18 -10,0 -18,8 -18,18 0,10 8,18 18,18zm-63 0c10,0 18,-8 18,-18 0,-10 -8,-18 -18,-18 -10,0 -18,8 -18,18 0,10 8,18 18,18zm-63 0c10,0 18,-8 18,-18 0,-10 -8,-18 -18,-18 -10,0 -18,8 -18,18 0,10 8,18 18,18zm158 -48c10,0 18,-8 18,-18 0,-10 -8,-18 -18,-18 -10,0 -18,8 -18,18 0,10 8,18 18,18zm-63 0c10,0 18,-8 18,-18 0,-10 -8,-18 -18,-18 -10,0 -18,8 -18,18 0,10 8,18 18,18zm-63 0c10,0 18,-8 18,-18 0,-10 -8,-18 -18,-18 -10,0 -18,8 -18,18 0,10 8,18 18,18zm-63 0c10,0 18,-8 18,-18 0,-10 -8,-18 -18,-18 -10,0 -18,8 -18,18 0,10 8,18 18,18zm221 -48c10,0 18,-8 18,-18 0,-10 -8,-18 -18,-18 -10,0 -18,8 -18,18 0,10 8,18 18,18zm-63 0c10,0 18,-8 18,-18 0,-10 -8,-18 -18,-18 -10,0 -18,8 -18,18 0,10 8,18 18,18zm-63 0c10,0 18,-8 18,-18 0,-10 -8,-18 -18,-18 -10,0 -18,8 -18,18 0,10 8,18 18,18zm-63 0c10,0 18,-8 18,-18 0,-10 -8,-18 -18,-18 -10,0 -18,8 -18,18 0,10 8,18 18,18zm-512 -778l1150 0 0 544c0,34 -28,61 -61,61l-1027 0c-34,0 -61,-28 -61,-61l0 -544z"/>
  </g>
 </g>
</svg>
